<svg width="24" height="24" viewBox="0 0 24 24" fill="none" xmlns="http://www.w3.org/2000/svg">
<path d="M2 22V2" stroke="white" stroke-width="1.5" stroke-linecap="round" stroke-linejoin="round"/>
<path d="M22 2V22" stroke="white" stroke-width="1.5" stroke-linecap="round" stroke-linejoin="round"/>
<path d="M7.33337 2H16.6667V10H7.33337V2Z" stroke="white" stroke-width="1.5" stroke-linecap="round" stroke-linejoin="round"/>
<path d="M7.33337 14H16.6667V22H7.33337V14Z" stroke="white" stroke-width="1.5" stroke-linecap="round" stroke-linejoin="round"/>
<path d="M5.00004 4.00002C5.00004 4.06595 4.98049 4.13039 4.94386 4.18521C4.90724 4.24003 4.85518 4.28275 4.79427 4.30798C4.73336 4.33321 4.66634 4.33981 4.60168 4.32695C4.53702 4.31409 4.47762 4.28234 4.43101 4.23572C4.38439 4.18911 4.35264 4.12971 4.33978 4.06505C4.32692 4.00039 4.33352 3.93337 4.35875 3.87246C4.38398 3.81155 4.4267 3.75949 4.48152 3.72286C4.53633 3.68624 4.60078 3.66669 4.66671 3.66669C4.75511 3.66669 4.8399 3.70181 4.90241 3.76432C4.96492 3.82683 5.00004 3.91161 5.00004 4.00002Z" stroke="white" stroke-width="1.5" stroke-linecap="round" stroke-linejoin="round"/>
<path d="M5.00004 9.33333C5.00004 9.39926 4.98049 9.46371 4.94386 9.51852C4.90724 9.57334 4.85518 9.61606 4.79427 9.64129C4.73336 9.66652 4.66634 9.67312 4.60168 9.66026C4.53702 9.6474 4.47762 9.61565 4.43101 9.56904C4.38439 9.52242 4.35264 9.46302 4.33978 9.39836C4.32692 9.3337 4.33352 9.26668 4.35875 9.20577C4.38398 9.14486 4.4267 9.0928 4.48152 9.05618C4.53633 9.01955 4.60078 9 4.66671 9C4.75511 9 4.8399 9.03512 4.90241 9.09763C4.96492 9.16014 5.00004 9.24493 5.00004 9.33333Z" stroke="white" stroke-width="1.5" stroke-linecap="round" stroke-linejoin="round"/>
<path d="M5.00004 14.6666C5.00004 14.7326 4.98049 14.797 4.94386 14.8518C4.90724 14.9067 4.85518 14.9494 4.79427 14.9746C4.73336 14.9998 4.66634 15.0064 4.60168 14.9936C4.53702 14.9807 4.47762 14.949 4.43101 14.9023C4.38439 14.8557 4.35264 14.7963 4.33978 14.7317C4.32692 14.667 4.33352 14.6 4.35875 14.5391C4.38398 14.4782 4.4267 14.4261 4.48152 14.3895C4.53633 14.3529 4.60078 14.3333 4.66671 14.3333C4.75511 14.3333 4.8399 14.3684 4.90241 14.4309C4.96492 14.4935 5.00004 14.5782 5.00004 14.6666Z" stroke="white" stroke-width="1.5" stroke-linecap="round" stroke-linejoin="round"/>
<path d="M5.00004 20C5.00004 20.0659 4.98049 20.1304 4.94386 20.1852C4.90724 20.24 4.85518 20.2828 4.79427 20.308C4.73336 20.3332 4.66634 20.3398 4.60168 20.3269C4.53702 20.3141 4.47762 20.2823 4.43101 20.2357C4.38439 20.1891 4.35264 20.1297 4.33978 20.065C4.32692 20.0004 4.33352 19.9334 4.35875 19.8725C4.38398 19.8115 4.4267 19.7595 4.48152 19.7229C4.53633 19.6862 4.60078 19.6667 4.66671 19.6667C4.75511 19.6667 4.8399 19.7018 4.90241 19.7643C4.96492 19.8268 5.00004 19.9116 5.00004 20Z" stroke="white" stroke-width="1.5" stroke-linecap="round" stroke-linejoin="round"/>
<path d="M19.6667 4.00002C19.6667 4.06595 19.6471 4.13039 19.6105 4.18521C19.5739 4.24003 19.5218 4.28275 19.4609 4.30798C19.4 4.33321 19.333 4.33981 19.2683 4.32695C19.2036 4.31409 19.1442 4.28234 19.0976 4.23572C19.051 4.18911 19.0193 4.12971 19.0064 4.06505C18.9935 4.00039 19.0001 3.93337 19.0254 3.87246C19.0506 3.81155 19.0933 3.75949 19.1481 3.72286C19.203 3.68624 19.2674 3.66669 19.3333 3.66669C19.4217 3.66669 19.5065 3.70181 19.569 3.76432C19.6315 3.82683 19.6667 3.91161 19.6667 4.00002Z" stroke="white" stroke-width="1.5" stroke-linecap="round" stroke-linejoin="round"/>
<path d="M19.6667 9.33333C19.6667 9.39926 19.6471 9.46371 19.6105 9.51852C19.5739 9.57334 19.5218 9.61606 19.4609 9.64129C19.4 9.66652 19.333 9.67312 19.2683 9.66026C19.2036 9.6474 19.1442 9.61565 19.0976 9.56904C19.051 9.52242 19.0193 9.46302 19.0064 9.39836C18.9935 9.3337 19.0001 9.26668 19.0254 9.20577C19.0506 9.14486 19.0933 9.0928 19.1481 9.05618C19.203 9.01955 19.2674 9 19.3333 9C19.4217 9 19.5065 9.03512 19.569 9.09763C19.6315 9.16014 19.6667 9.24493 19.6667 9.33333Z" stroke="white" stroke-width="1.5" stroke-linecap="round" stroke-linejoin="round"/>
<path d="M19.6667 14.6666C19.6667 14.7326 19.6471 14.797 19.6105 14.8518C19.5739 14.9067 19.5218 14.9494 19.4609 14.9746C19.4 14.9998 19.333 15.0064 19.2683 14.9936C19.2036 14.9807 19.1442 14.949 19.0976 14.9023C19.051 14.8557 19.0193 14.7963 19.0064 14.7317C18.9935 14.667 19.0001 14.6 19.0254 14.5391C19.0506 14.4782 19.0933 14.4261 19.1481 14.3895C19.203 14.3529 19.2674 14.3333 19.3333 14.3333C19.4217 14.3333 19.5065 14.3684 19.569 14.4309C19.6315 14.4935 19.6667 14.5782 19.6667 14.6666Z" stroke="white" stroke-width="1.5" stroke-linecap="round" stroke-linejoin="round"/>
<path d="M19.6667 20C19.6667 20.0659 19.6471 20.1304 19.6105 20.1852C19.5739 20.24 19.5218 20.2828 19.4609 20.308C19.4 20.3332 19.333 20.3398 19.2683 20.3269C19.2036 20.3141 19.1442 20.2823 19.0976 20.2357C19.051 20.1891 19.0193 20.1297 19.0064 20.065C18.9935 20.0004 19.0001 19.9334 19.0254 19.8725C19.0506 19.8115 19.0933 19.7595 19.1481 19.7229C19.203 19.6862 19.2674 19.6667 19.3333 19.6667C19.4217 19.6667 19.5065 19.7018 19.569 19.7643C19.6315 19.8268 19.6667 19.9116 19.6667 20Z" stroke="white" stroke-width="1.5" stroke-linecap="round" stroke-linejoin="round"/>
</svg>
