<svg width="24" height="24" viewBox="0 0 24 24" fill="none" xmlns="http://www.w3.org/2000/svg">
<path d="M2.48071 4H21.5192V17.9615H2.48071V4Z" stroke="white" stroke-width="1.5" stroke-linecap="round" stroke-linejoin="round"/>
<path d="M15.173 4V17.9615" stroke="white" stroke-width="1.5" stroke-linecap="round" stroke-linejoin="round"/>
<path d="M17.7114 11.6154H18.9807" stroke="white" stroke-width="1.5" stroke-linecap="round" stroke-linejoin="round"/>
<path d="M17.7114 14.1539H18.9807" stroke="white" stroke-width="1.5" stroke-linecap="round" stroke-linejoin="round"/>
<path d="M18.3461 8.125C18.4089 8.125 18.4702 8.14361 18.5224 8.17848C18.5746 8.21334 18.6153 8.2629 18.6393 8.32088C18.6633 8.37886 18.6696 8.44266 18.6573 8.50421C18.6451 8.56576 18.6149 8.6223 18.5705 8.66668C18.5261 8.71105 18.4696 8.74127 18.408 8.75352C18.3465 8.76576 18.2827 8.75948 18.2247 8.73546C18.1667 8.71145 18.1172 8.67078 18.0823 8.61859C18.0474 8.56641 18.0288 8.50507 18.0288 8.44231C18.0288 8.35815 18.0622 8.27744 18.1217 8.21794C18.1813 8.15843 18.262 8.125 18.3461 8.125" stroke="white" stroke-width="1.5" stroke-linecap="round" stroke-linejoin="round"/>
<path d="M3.75 20.5L6.28846 17.9615" stroke="white" stroke-width="1.5" stroke-linecap="round" stroke-linejoin="round"/>
<path d="M20.2499 20.5L17.7114 17.9615" stroke="white" stroke-width="1.5" stroke-linecap="round" stroke-linejoin="round"/>
</svg>
