<svg width="24" height="24" viewBox="0 0 24 24" fill="none" xmlns="http://www.w3.org/2000/svg">
<path d="M15.0917 15.2406L15.5611 15.71L18.7906 18.9394L18.9393 18.7907L15.7098 15.5613L15.2403 15.0918L15.6494 14.5688C16.4819 13.5049 16.9344 12.1929 16.9347 10.842L15.0917 15.2406ZM15.0917 15.2406L14.5687 15.6495M15.0917 15.2406L14.5687 15.6495M14.5687 15.6495C13.5048 16.4815 12.193 16.9337 10.8424 16.934L14.5687 15.6495ZM10.8422 16.934C7.48374 16.9339 4.75 14.2002 4.75 10.842C4.75 7.48374 7.48383 4.75 10.8424 4.75C14.2008 4.75 16.9346 7.48364 16.9347 10.8418L10.8422 16.934ZM16.7241 10.842C16.7241 7.59772 14.0867 4.9605 10.8424 4.9605C7.59801 4.9605 4.96059 7.59772 4.96059 10.842C4.96059 14.0863 7.59801 16.7235 10.8424 16.7235C14.0867 16.7235 16.7241 14.0863 16.7241 10.842Z" fill="white" stroke="white" stroke-width="1.5"/>
</svg>
